<?xml version="1.0" standalone="no"?>
<!DOCTYPE svg PUBLIC "-//W3C//DTD SVG 20010904//EN"
 "http://www.w3.org/TR/2001/REC-SVG-20010904/DTD/svg10.dtd">
<svg version="1.0" xmlns="http://www.w3.org/2000/svg"
 width="770.000000pt" height="407.000000pt" viewBox="0 0 770.000000 407.000000"
 preserveAspectRatio="xMidYMid meet">

<g transform="translate(0.000000,407.000000) scale(0.100000,-0.100000)"
fill="#000000" stroke="none">
<path d="M3025 3934 c20 -21 35 -22 35 -3 0 5 -8 9 -18 9 -10 0 -22 3 -27 8
-6 4 -1 -3 10 -14z"/>
<path d="M3108 3953 c-17 -4 -22 -19 -19 -54 1 -9 -3 -28 -9 -43 -9 -26 -11
-26 -38 -12 -26 13 -29 13 -40 -5 -7 -10 -12 -25 -12 -33 0 -23 -22 -31 -32
-12 -5 9 -18 16 -30 16 -20 0 -19 -1 5 -34 27 -35 26 -46 -6 -46 -11 0 -21 -9
-24 -20 -10 -37 -28 -14 -27 33 0 25 -4 45 -9 44 -5 -1 -14 12 -20 28 -13 39
-11 38 -45 30 -24 -5 -28 -10 -25 -30 3 -14 16 -28 34 -35 32 -14 33 -17 19
-55 -12 -31 -32 -29 -40 5 -7 31 -30 38 -30 10 0 -13 -4 -19 -11 -14 -6 3 -15
1 -19 -6 -6 -9 -12 -9 -30 0 -21 11 -22 11 -16 -11 19 -68 19 -77 -3 -84 -29
-9 -26 -33 5 -41 22 -6 24 -10 19 -35 -6 -28 7 -40 20 -19 4 7 12 7 25 0 27
-14 32 -12 25 10 -8 27 20 27 35 1 8 -16 6 -22 -7 -31 -17 -10 -17 -12 4 -26
12 -9 19 -22 16 -30 -4 -11 -9 -12 -19 -3 -8 6 -14 17 -14 24 0 15 -44 29 -48
15 -2 -6 -8 -10 -14 -10 -11 0 -81 52 -111 82 -23 23 -29 23 -50 -2 -23 -27
-22 -35 7 -48 17 -7 27 -7 35 1 17 17 24 1 11 -23 -14 -27 -8 -35 17 -21 15 7
27 5 50 -8 18 -12 40 -17 56 -14 19 4 29 0 33 -12 4 -9 2 -20 -4 -24 -5 -3
-12 -15 -14 -26 -2 -15 5 -22 30 -30 17 -5 32 -15 32 -22 0 -7 5 -13 10 -13 6
0 10 -7 10 -17 0 -15 2 -15 18 0 9 8 29 18 44 22 20 5 27 3 31 -12 4 -16 5
-16 6 0 0 9 8 17 17 17 12 0 14 -7 9 -30 -6 -25 -4 -30 13 -30 22 0 37 -26 22
-35 -6 -4 -16 -3 -22 0 -7 4 -2 -3 12 -14 14 -11 30 -21 36 -21 10 0 42 -43
72 -97 14 -26 16 -44 5 -42 -5 1 -16 1 -26 0 -15 -1 -13 -5 10 -25 l28 -24 1
-139 c1 -91 -3 -155 -12 -187 -8 -27 -14 -78 -14 -112 0 -93 -9 -109 -85 -143
-75 -34 -91 -38 -122 -27 -15 5 -23 15 -23 31 0 19 -15 30 -91 67 -49 24 -92
41 -95 36 -3 -4 29 -41 70 -81 61 -60 84 -76 116 -81 45 -7 124 8 158 30 22
14 25 14 43 -2 15 -14 18 -25 13 -48 -4 -17 -6 -57 -6 -89 1 -46 -2 -61 -19
-78 -11 -11 -26 -18 -32 -16 -7 2 -31 -11 -54 -29 -49 -40 -67 -44 -57 -12 6
21 5 21 -25 -4 -17 -15 -41 -29 -53 -33 -13 -3 -32 -10 -43 -15 -11 -4 -28
-11 -37 -14 -10 -3 -18 -14 -18 -24 0 -13 -11 -21 -37 -28 l-38 -10 35 -18
c19 -10 37 -22 40 -26 3 -4 15 -12 27 -19 18 -9 21 -17 17 -40 -5 -22 -2 -28
11 -28 15 0 17 11 14 86 l-4 86 45 22 c25 12 53 22 64 22 17 1 18 -4 12 -48
-6 -49 -6 -49 24 -56 20 -4 30 -12 26 -20 -3 -9 7 -15 29 -19 42 -8 75 -48 75
-92 0 -18 -7 -64 -15 -103 -8 -38 -16 -125 -18 -193 -3 -87 -9 -135 -21 -163
-9 -22 -19 -70 -21 -107 -2 -36 -11 -90 -19 -119 -25 -81 -27 -79 68 -79 l83
0 7 53 c20 157 25 221 25 307 1 52 10 147 21 210 11 63 22 189 26 280 6 191 8
204 34 230 16 16 17 20 4 31 -10 8 -14 8 -14 0 0 -19 -28 -12 -35 9 -3 10 -1
36 4 57 7 25 7 39 1 41 -17 6 -11 75 9 114 l20 36 -21 -6 c-21 -5 -21 -3 -16
106 4 79 10 119 22 137 21 32 20 45 -3 45 -27 0 -31 17 -33 160 -3 119 -2 127
22 160 14 19 25 39 26 45 0 5 2 16 2 23 3 17 32 15 53 -4 16 -15 20 -14 48 2
42 25 46 41 10 36 -17 -3 -29 0 -29 7 0 6 -11 11 -25 11 -18 0 -25 5 -25 20 0
15 7 20 25 20 14 0 28 7 32 15 8 24 -4 30 -22 11 -18 -17 -35 -13 -35 9 0 24
49 73 80 80 19 4 30 13 32 27 4 26 38 49 45 31 3 -7 15 -13 28 -13 13 0 27 -5
30 -10 4 -6 10 -8 15 -5 6 4 4 14 -2 25 -15 23 -4 37 15 21 20 -16 46 -4 40
20 -3 10 0 19 6 19 6 0 11 9 11 20 0 11 11 27 25 36 31 20 25 31 -16 32 -17 0
-34 4 -37 7 -10 10 -12 75 -2 75 5 0 17 14 25 30 16 30 16 30 -15 37 -20 4
-36 16 -46 34 -14 28 -37 38 -48 20 -3 -5 4 -21 15 -36 16 -19 19 -29 11 -37
-8 -8 -15 -8 -25 1 -8 6 -21 9 -29 6 -11 -4 -17 2 -21 17 -5 18 -13 24 -34 23
-28 0 -28 0 -27 67 0 50 -3 65 -12 61 -8 -3 -16 6 -20 22 -7 30 -28 28 -32 -3
-5 -32 -32 -16 -32 19 0 16 -4 29 -9 29 -5 0 -12 8 -15 18 -7 21 -37 25 -49 8
-5 -7 -11 -5 -18 7 -10 17 -12 18 -41 10z m90 -136 c2 -15 -1 -27 -7 -27 -14
0 -33 38 -26 51 11 17 30 4 33 -24z m-68 -7 c19 -19 19 -47 0 -35 -5 3 -12 0
-15 -6 -10 -15 -48 28 -41 47 8 20 33 17 56 -6z m155 -26 c7 -38 -5 -61 -25
-49 -7 4 -10 18 -7 31 2 14 -1 25 -9 28 -23 9 -16 26 10 26 19 0 25 -7 31 -36z
m-180 -94 c12 -19 -5 -30 -25 -17 -11 6 -20 15 -20 19 0 12 38 10 45 -2z m265
-9 c0 -5 -6 -14 -14 -20 -16 -13 -32 2 -21 19 8 12 35 13 35 1z m-189 -38 c10
-28 -1 -50 -20 -39 -14 9 -14 66 -1 66 6 0 15 -12 21 -27z m-361 2 c0 -8 5
-15 10 -15 6 0 10 -7 10 -15 0 -23 -16 -18 -34 10 -20 30 -20 35 -1 35 8 0 15
-7 15 -15z m105 -26 c-4 -11 -2 -19 4 -19 6 0 11 -7 11 -15 0 -9 8 -14 23 -12
16 1 22 -3 22 -18 0 -18 -20 -23 -66 -16 -8 1 -19 93 -12 104 9 14 24 -5 18
-24z m-185 -4 c7 -8 9 -22 6 -31 -5 -13 -9 -14 -21 -4 -16 13 -21 50 -6 50 5
0 14 -7 21 -15z m658 -23 c2 -23 -1 -32 -12 -32 -8 0 -18 5 -21 10 -3 6 -17 7
-31 4 -32 -8 -32 14 1 26 14 5 25 14 25 20 0 7 8 10 18 8 11 -2 18 -14 20 -36z
m84 3 c-5 -24 -32 -65 -43 -65 -20 0 -20 31 1 60 23 33 47 35 42 5z m-264 -27
c-2 -22 -9 -34 -21 -36 -25 -5 -33 26 -11 48 27 27 36 24 32 -12z m-356 -8 c8
-23 13 -28 23 -20 9 7 16 6 25 -5 18 -22 -12 -30 -49 -14 -29 13 -56 51 -44
63 15 15 35 4 45 -24z m426 8 c-6 -18 -28 -21 -28 -4 0 9 7 16 16 16 9 0 14
-5 12 -12z m87 -57 c0 -31 -21 -38 -35 -11 -13 24 -5 42 18 38 10 -2 17 -13
17 -27z m-307 -11 c18 -16 41 -30 50 -30 10 0 23 -14 31 -31 12 -28 12 -33 -3
-41 -9 -5 -25 -18 -35 -29 -16 -17 -19 -18 -31 -4 -9 11 -10 18 -1 28 12 16 5
27 -17 27 -9 0 -24 7 -34 17 -11 9 -18 11 -18 5 0 -7 -9 -12 -20 -12 -11 0
-20 7 -20 16 0 24 19 54 35 54 8 0 15 7 15 15 0 22 12 18 48 -15z m432 5 c0
-8 -4 -15 -10 -15 -5 0 -10 7 -10 15 0 8 5 15 10 15 6 0 10 -7 10 -15z m-291
-8 c8 0 16 -9 19 -19 2 -10 8 -18 13 -18 15 0 10 -37 -6 -50 -12 -10 -21 -10
-40 -2 -26 12 -34 45 -14 58 8 5 6 10 -5 16 -22 12 -21 32 2 23 9 -4 23 -8 31
-8z m86 -23 c0 -10 6 -23 12 -29 8 -6 9 -15 4 -23 -6 -11 -13 -7 -30 14 -22
27 -26 46 -14 58 12 11 28 0 28 -20z m139 -39 c-5 -13 -35 -25 -62 -25 -7 0
-1 13 15 29 19 20 32 26 40 19 6 -5 10 -15 7 -23z m-554 -9 c0 -8 -4 -17 -9
-21 -12 -7 -24 12 -16 25 9 15 25 12 25 -4z m125 -26 c11 -17 -5 -32 -21 -19
-7 6 -11 15 -8 20 7 12 21 11 29 -1z m155 -32 c0 -7 -5 -20 -10 -28 -12 -19
-35 2 -27 24 7 19 37 21 37 4z m86 -4 c-3 -9 -6 -20 -6 -25 0 -5 -7 -9 -15 -9
-9 0 -15 9 -15 25 0 19 5 25 21 25 15 0 19 -4 15 -16z m112 -2 c3 -9 -2 -13
-14 -10 -9 1 -19 9 -22 16 -3 9 2 13 14 10 9 -1 19 -9 22 -16z m-481 -18 c-9
-9 -28 6 -21 18 4 6 10 6 17 -1 6 -6 8 -13 4 -17z m163 0 c0 -10 7 -13 25 -8
15 4 32 1 40 -6 8 -7 15 -9 15 -5 0 4 7 2 15 -5 8 -7 15 -28 15 -46 0 -19 5
-34 11 -34 6 0 17 -7 25 -15 8 -8 22 -19 31 -24 10 -5 14 -15 10 -25 -8 -20
-27 -21 -27 -2 0 33 -64 30 -66 -3 -3 -51 -39 -38 -54 21 -14 50 -58 115 -82
121 -10 3 -18 13 -18 22 0 14 3 15 14 6 11 -9 15 -7 19 10 6 23 27 17 27 -7z
m160 -49 c0 -8 -7 -15 -15 -15 -16 0 -20 12 -8 23 11 12 23 8 23 -8z m52 -40
c-3 -23 -9 -35 -19 -35 -11 0 -14 6 -9 23 3 12 6 28 6 35 0 6 6 12 13 12 9 0
12 -11 9 -35z m-174 -1164 c2 -29 0 -61 -4 -70 -4 -9 -8 -22 -10 -30 -6 -29
-24 -36 -52 -20 -31 17 -34 49 -10 110 33 88 71 92 76 10z"/>
<path d="M3400 3747 c0 -8 6 -14 14 -14 8 0 12 6 9 14 -3 7 -9 13 -14 13 -5 0
-9 -6 -9 -13z"/>
<path d="M3567 3591 c3 -13 11 -17 26 -13 16 4 19 2 14 -11 -4 -11 -2 -14 9
-10 27 10 11 37 -28 46 -22 6 -25 4 -21 -12z"/>
<path d="M3661 3454 c0 -11 3 -14 6 -6 3 7 2 16 -1 19 -3 4 -6 -2 -5 -13z"/>
<path d="M3586 3394 c-4 -10 2 -14 19 -14 14 0 25 6 25 13 0 18 -37 19 -44 1z"/>
<path d="M2639 3357 c7 -10 20 -17 27 -17 8 0 14 -9 14 -20 0 -11 5 -20 10
-20 16 0 11 -20 -6 -27 -11 -4 -22 1 -31 13 -14 19 -14 19 -11 -1 5 -30 -25
-30 -61 0 -17 15 -31 23 -31 18 1 -14 24 -39 48 -52 13 -7 27 -24 33 -37 5
-14 14 -24 21 -22 16 6 23 29 7 26 -7 -2 -15 5 -17 15 -3 14 3 17 32 17 38 0
55 -15 37 -33 -15 -15 -14 -44 1 -49 18 -6 58 3 58 13 0 15 24 10 50 -11 14
-11 34 -20 45 -19 18 0 19 0 3 10 -21 12 -24 39 -5 39 7 0 18 -9 25 -20 7 -11
23 -20 37 -20 19 0 25 -5 25 -23 0 -12 9 -30 19 -39 10 -9 23 -24 29 -33 7
-13 14 -15 26 -8 16 9 16 11 2 22 -9 8 -16 22 -16 33 0 16 -3 18 -14 9 -22
-18 -41 11 -24 39 11 18 10 23 -6 36 -11 8 -33 14 -48 14 -16 0 -31 6 -34 14
-3 8 -19 16 -35 20 -16 3 -32 14 -36 23 -4 10 -12 23 -19 30 -9 10 -13 8 -17
-9 -4 -14 0 -26 11 -34 12 -9 14 -16 6 -23 -7 -8 -19 -2 -42 20 -18 17 -32 34
-33 38 -3 35 -8 64 -11 66 -2 2 -21 7 -43 11 -36 6 -39 6 -26 -9z"/>
<path d="M3543 3358 c-4 -7 -8 -19 -10 -27 -2 -16 -24 -32 -35 -25 -4 3 -26
-8 -49 -23 -34 -22 -39 -29 -24 -32 11 -2 21 2 23 8 2 7 18 9 42 5 31 -5 40
-3 53 17 11 15 13 27 7 34 -6 7 -4 19 6 33 8 12 11 22 5 22 -5 0 -13 -6 -18
-12z"/>
<path d="M2496 3331 c-3 -5 1 -11 9 -15 8 -3 15 -1 15 4 0 13 -18 22 -24 11z"/>
<path d="M2701 2796 c7 -14 19 -26 27 -26 13 0 13 3 0 22 -22 33 -41 36 -27 4z"/>
<path d="M2576 2714 c-21 -12 -25 -19 -17 -27 6 -6 11 -20 11 -31 1 -21 1 -21
15 -2 8 11 15 28 15 38 0 10 5 18 10 18 6 0 10 -4 10 -10 0 -17 19 -11 30 10
10 18 8 20 -17 20 -15 -1 -41 -8 -57 -16z"/>
<path d="M2697 2723 c6 -4 13 -24 15 -43 3 -35 23 -45 23 -13 0 10 11 23 25
30 14 7 23 13 20 14 -9 1 -35 7 -65 14 -17 4 -25 3 -18 -2z"/>
<path d="M2525 2579 c-10 -16 -3 -16 35 -3 l35 13 -32 0 c-17 1 -35 -4 -38
-10z"/>
<path d="M2478 2500 c-12 -38 -10 -66 3 -53 6 6 9 26 7 44 -3 32 -3 33 -10 9z"/>
<path d="M2590 2345 c0 -2 10 -10 23 -16 20 -11 21 -11 8 4 -13 16 -31 23 -31
12z"/>
<path d="M2721 2326 c-14 -14 -30 -26 -38 -26 -7 0 -13 -7 -13 -15 0 -8 5 -15
10 -15 6 0 10 -4 10 -10 0 -5 -9 -10 -20 -10 -11 0 -20 -4 -20 -10 0 -5 -17
-12 -37 -16 -57 -10 -76 -25 -28 -22 22 2 43 7 46 11 7 10 74 26 107 27 29 0
25 -24 -4 -25 -24 -1 -104 -37 -104 -48 0 -4 22 4 50 18 49 25 49 25 60 5 17
-31 37 -25 32 10 -3 23 0 31 14 36 11 3 32 11 49 17 l29 11 -39 8 c-45 10 -73
31 -77 60 -3 19 -5 18 -27 -6z"/>
<path d="M2541 2152 c-9 -17 -9 -27 -2 -36 6 -8 8 -22 4 -31 -4 -13 -3 -16 5
-11 7 4 12 12 12 17 0 6 12 21 27 34 l28 23 -27 -5 c-20 -4 -27 -1 -30 14 -3
16 -5 16 -17 -5z"/>
<path d="M2740 2141 c0 -6 5 -13 10 -16 6 -4 7 -11 4 -17 -4 -7 -2 -8 4 -4 17
10 15 46 -3 46 -8 0 -15 -4 -15 -9z"/>
<path d="M2523 2044 c-3 -8 -1 -20 6 -27 8 -8 11 -4 11 16 0 30 -7 35 -17 11z"/>
<path d="M2920 1949 c0 -5 5 -7 10 -4 6 3 10 8 10 11 0 2 -4 4 -10 4 -5 0 -10
-5 -10 -11z"/>
<path d="M2787 1824 c-5 -22 -7 -45 -6 -50 5 -16 -12 -54 -24 -55 -7 0 -1 -5
12 -10 13 -5 26 -8 28 -5 2 2 3 39 1 82 -3 71 -4 75 -11 38z"/>
<path d="M2740 1650 c0 -5 4 -10 9 -10 6 0 13 5 16 10 3 6 -1 10 -9 10 -9 0
-16 -4 -16 -10z"/>
<path d="M2711 1610 c-13 -11 -36 -20 -52 -20 -33 0 -38 -19 -10 -37 13 -8 17
-19 14 -37 -4 -17 2 -30 16 -42 36 -31 27 -47 -21 -41 -39 5 -37 4 17 -14 105
-33 144 -16 66 28 -22 13 -42 32 -46 42 -9 29 12 98 37 121 28 26 10 26 -21 0z"/>
<path d="M2440 881 c-92 -19 -105 -49 -105 -251 0 -173 6 -195 67 -226 35 -18
160 -16 211 4 26 11 27 14 27 92 l0 80 -39 0 c-37 0 -39 -1 -45 -39 -3 -22
-13 -47 -22 -55 -21 -22 -60 -20 -84 4 -18 18 -20 33 -20 140 0 66 5 130 11
144 22 47 103 36 111 -16 2 -19 10 -24 46 -26 l42 -3 0 64 0 64 -42 11 c-64
17 -119 21 -158 13z"/>
<path d="M5070 884 c-101 -19 -110 -39 -110 -252 0 -188 5 -205 69 -232 35
-14 161 -9 204 8 26 11 27 14 27 91 l0 79 -39 0 c-41 1 -51 -12 -51 -65 0 -44
-78 -59 -104 -21 -19 27 -23 242 -5 282 24 51 109 36 109 -19 0 -23 4 -25 45
-25 l45 0 0 63 0 64 -37 11 c-49 14 -121 21 -153 16z"/>
<path d="M2817 874 c-4 -4 -7 -19 -7 -33 0 -14 -7 -57 -16 -96 -8 -38 -22
-108 -29 -154 -8 -46 -21 -94 -30 -107 -8 -13 -15 -38 -15 -57 l0 -33 65 1 65
0 0 35 c0 20 -5 41 -11 47 -6 6 -9 21 -7 34 3 22 8 24 58 24 55 0 55 0 53 -30
-1 -16 -5 -47 -9 -67 l-6 -38 76 0 76 0 0 32 c0 17 -6 39 -14 47 -12 14 -42
142 -67 286 -20 114 -16 110 -100 113 -41 1 -78 0 -82 -4z m102 -194 c7 -44 8
-77 3 -82 -17 -17 -67 -5 -71 16 -4 22 15 117 31 156 10 24 11 24 18 5 4 -12
13 -54 19 -95z"/>
<path d="M3136 855 c-5 -19 -2 -33 9 -44 21 -24 22 -310 1 -344 -8 -12 -13
-33 -12 -46 2 -22 6 -23 64 -23 34 1 67 1 72 1 13 1 13 64 -1 78 -5 5 -9 34
-7 64 l3 54 38 -2 c60 -2 67 -14 67 -108 0 -91 2 -94 63 -90 45 3 49 6 48 37
-1 66 -28 160 -49 176 l-22 17 30 28 c59 56 48 162 -20 202 -29 16 -56 21
-156 23 l-121 4 -7 -27z m235 -76 c13 -21 11 -73 -4 -94 -10 -12 -28 -18 -58
-19 l-44 -1 -3 64 c-2 40 1 67 8 71 17 10 91 -6 101 -21z"/>
<path d="M3577 873 c-12 -11 -7 -57 8 -77 22 -29 21 -275 -1 -317 -8 -17 -14
-42 -12 -57 l3 -26 162 0 163 -1 0 73 0 72 -44 0 c-38 0 -45 -3 -48 -22 -4
-29 -37 -45 -83 -40 l-36 4 3 62 3 61 65 5 c64 5 65 5 65 35 l0 30 -67 3 -68
3 0 59 0 60 39 0 c52 0 71 -8 81 -35 8 -21 27 -25 83 -16 4 0 7 30 7 66 l0 65
-158 0 c-87 0 -162 -3 -165 -7z"/>
<path d="M4187 873 c-12 -11 -7 -47 8 -67 22 -30 22 -318 -1 -336 -9 -8 -14
-25 -12 -44 l3 -31 157 0 158 0 0 103 0 102 -40 0 -40 0 0 -49 c0 -40 -4 -53
-22 -65 -27 -19 -88 -21 -89 -3 -4 99 2 301 10 316 6 11 11 33 11 50 l0 31
-68 0 c-38 0 -72 -3 -75 -7z"/>
<path d="M4570 848 c0 -18 7 -42 15 -52 22 -29 21 -292 -1 -324 -8 -12 -14
-35 -12 -50 l3 -27 155 0 155 0 3 103 3 102 -41 0 c-37 0 -40 -2 -40 -29 0
-73 -32 -108 -91 -99 -24 3 -24 4 -27 160 -2 129 0 159 13 171 8 9 15 29 15
46 l0 31 -75 0 -75 0 0 -32z"/>
</g>
</svg>
